# xmcd
#
# Track frame offsets: 
#        150
#        16077
#        28696
#        32873
#        43330
#        56675
#        68107
#        87259
#        100694
#        115315
#        145551
#        158170
#        174288
#        185154
#        200069
#        211789
#        218795
#        239787
#
# Disc length: 3457 seconds
#
# Revision: 4
# Processed by: cddbd v1.5.1PL0 Copyright (c) Steve Scherf et al.
# Submitted via: ExactAudioCopy v0.95a5
#
DISCID=020d7f12
DTITLE=Various Artist - Jazz and Blues Collection Complete CD 8
DYEAR=1900
DGENRE=
TTITLE0=B.B. King - Long Nights
TTITLE1=Elmore James - The Sky Is Crying
TTITLE2=Mississippi John Hurt - C-h-i-c-k-e-n Blues
TTITLE3=Johnny Winter - Out Of Sight
TTITLE4=John Lee Hooker - Wiskey And Wimmen
TTITLE5=Lightning Blues - Bad Luck Blues
TTITLE6=John Mayall - John Lee Boogie
TTITLE7=Johnny Guitar Watson - Someone Cares For Me
TTITLE8=B.B. King - Mr. Pawnbroker
TTITLE9=Brownie McGhee and Sonny Terry - Everybody's Blue
TTITLE10=Eric Clapton - Freight Loader
TTITLE11=B.B. King - It's My Own Fault Baby
TTITLE12=John Lee Hooker - No Shoes
TTITLE13=Elmore James - It Hurts Me Too
TTITLE14=Big Joe Williams - Nobody Knows You When Your Down And Out
TTITLE15=Eddy Wilsons Blues Band and Friends - Jigsaw Puzzle Blues
TTITLE16=Mike Bloomfield - Women Lovin' Each Other
TTITLE17=Eddy Wilsons Blues Band and Friends - Pretty Woman
EXTD=
EXTT0=
EXTT1=
EXTT2=
EXTT3=
EXTT4=
EXTT5=
EXTT6=
EXTT7=
EXTT8=
EXTT9=
EXTT10=
EXTT11=
EXTT12=
EXTT13=
EXTT14=
EXTT15=
EXTT16=
EXTT17=
PLAYORDER=
